<svg width="981" height="195" viewBox="0 0 981 195" fill="none" xmlns="http://www.w3.org/2000/svg">
<path d="M3.00293 97.0352V89.4912C3.00293 88.5146 3.49121 88.0264 4.46777 88.0264C8.91113 88.0264 12.5244 86.5859 15.3076 83.7051C18.0908 80.7754 19.4824 76.4541 19.4824 70.7412V53.5293C19.4824 44.6914 22.168 37.8555 27.5391 33.0215C32.959 28.1875 40.2832 25.7705 49.5117 25.7705H51.6357C52.6123 25.7705 53.1006 26.2588 53.1006 27.2354V34.7793C53.1006 35.7559 52.6123 36.2441 51.6357 36.2441H49.5117C44.3848 36.2441 40.3564 37.6846 37.4268 40.5654C34.4971 43.3975 33.0322 47.7188 33.0322 53.5293V70.7412C33.0322 76.3564 31.6895 81.2393 29.0039 85.3896C26.3672 89.54 22.9492 92.1523 18.75 93.2266C22.9492 94.3496 26.3672 96.9863 29.0039 101.137C31.6895 105.287 33.0322 110.17 33.0322 115.785V132.997C33.0322 138.808 34.4971 143.129 37.4268 145.961C40.3564 148.842 44.3848 150.282 49.5117 150.282H51.6357C52.6123 150.282 53.1006 150.771 53.1006 151.747V159.218C53.1006 160.243 52.6123 160.756 51.6357 160.756H49.5117C40.2832 160.756 32.959 158.314 27.5391 153.432C22.168 148.598 19.4824 141.786 19.4824 132.997V115.785C19.4824 110.072 18.0908 105.775 15.3076 102.895C12.5244 99.9648 8.91113 98.5 4.46777 98.5C3.49121 98.5 3.00293 98.0117 3.00293 97.0352ZM56.1768 99.2324V94.7646C56.1768 91.4443 57.666 89.1982 60.6445 88.0264L122.9 61.7324C123.877 61.4395 124.39 61.6836 124.438 62.4648V72.2793C124.438 73.5 123.926 74.2324 122.9 74.4766L69.6533 97.0352L122.9 119.521C123.877 119.813 124.39 120.546 124.438 121.718V131.532C124.438 132.313 123.926 132.558 122.9 132.265L60.6445 105.971C57.666 104.701 56.1768 102.455 56.1768 99.2324ZM139.453 131.532V121.718C139.453 120.497 139.966 119.765 140.991 119.521L194.238 97.0352L140.991 74.4766C140.015 74.1836 139.502 73.4512 139.453 72.2793V62.4648C139.453 61.6836 139.966 61.4395 140.991 61.7324L203.247 88.0264C206.226 89.2471 207.715 91.4932 207.715 94.7646V99.2324C207.715 102.455 206.226 104.701 203.247 105.971L140.991 132.265C139.966 132.558 139.453 132.313 139.453 131.532ZM210.791 151.747C210.791 150.771 211.279 150.282 212.256 150.282H214.38C219.507 150.282 223.535 148.842 226.465 145.961C229.395 143.129 230.859 138.808 230.859 132.997V115.785C230.859 110.17 232.178 105.287 234.814 101.137C237.5 96.9863 240.942 94.3496 245.142 93.2266C240.942 92.1523 237.5 89.54 234.814 85.3896C232.178 81.2393 230.859 76.3564 230.859 70.7412V53.5293C230.859 47.7188 229.395 43.3975 226.465 40.5654C223.535 37.6846 219.507 36.2441 214.38 36.2441H212.256C211.279 36.2441 210.791 35.7559 210.791 34.7793V27.2354C210.791 26.2588 211.279 25.7705 212.256 25.7705H214.38C223.608 25.7705 230.908 28.1875 236.279 33.0215C241.699 37.8555 244.409 44.6914 244.409 53.5293V70.7412C244.409 76.4541 245.801 80.7754 248.584 83.7051C251.367 86.5859 254.98 88.0264 259.424 88.0264C260.4 88.0264 260.889 88.5146 260.889 89.4912V97.0352C260.889 98.0117 260.4 98.5 259.424 98.5C254.98 98.5 251.367 99.9648 248.584 102.895C245.801 105.775 244.409 110.072 244.409 115.785V132.997C244.409 141.786 241.699 148.598 236.279 153.432C230.908 158.314 223.608 160.756 214.38 160.756H212.256C211.279 160.756 210.791 160.243 210.791 159.218V151.747Z" fill="#010101"/>
<circle cx="132" cy="98" r="14" fill="#FFB703"/>
<path d="M285.25 135.2V41.9H296.35V88.85L310.9 74.3H337.15L350.95 88.1V135.2L337.15 149H299.05L285.25 135.2ZM332.35 139.1L339.85 131.75V91.55L332.35 84.2H314.05L296.35 101.9V131.75L303.85 139.1H332.35ZM371.969 74.3H382.769V87.65L396.119 74.3H415.469V84.2H398.969L383.069 100.1V149H371.969V74.3ZM423.625 136.7V117.65L435.925 105.5H475.825V91.25L468.325 83.9H442.825L435.325 91.25V97.4H424.225V88.1L438.025 74.3H472.975L486.775 88.1V149H476.125V135.8L462.325 149H435.925L423.625 136.7ZM460.075 139.4L475.825 124.25V115.1H440.725L434.725 120.95V133.55L440.725 139.4H460.075ZM507.742 132.5V60.5L524.242 44H569.242L585.142 59.9V69.5H573.742V63.65L564.142 54.2H529.342L519.142 64.25V128.75L529.342 138.8H564.142L573.742 129.35V123.5H585.142V133.1L569.242 149H524.242L507.742 132.5ZM601.621 135.2V88.1L615.421 74.3H653.821L667.621 88.1V135.2L653.821 149H615.421L601.621 135.2ZM649.021 139.1L656.521 131.75V91.55L649.021 84.2H620.221L612.721 91.55V131.75L620.221 139.1H649.021ZM687.168 135.2V88.1L700.968 74.3H729.768L742.068 85.1V41.9H753.168V149H742.368V135.35L728.718 149H700.968L687.168 135.2ZM726.318 139.1L742.068 123.35V96.8L727.668 84.2H705.768L698.268 91.55V131.75L705.768 139.1H726.318ZM774.18 135.2V88.1L787.98 74.3H825.63L839.58 88.1V114.95H785.28V131.75L792.78 139.1H820.83L828.33 131.75V126.05H839.43V135.2L825.63 149H787.98L774.18 135.2ZM828.48 105.35V91.55L820.98 84.2H792.78L785.28 91.55V105.35H828.48ZM859.762 74.3H870.562V87.65L883.912 74.3H903.262V84.2H886.762L870.862 100.1V149H859.762V74.3ZM911.529 136.7V127.4H922.629V133.55L928.629 139.4H956.229L962.229 133.55V122L956.229 116H923.979L912.129 104.15V86.6L924.429 74.3H959.529L971.829 86.6V95.9H960.729V89.75L954.729 83.9H929.229L923.229 89.75V100.7L929.229 106.7H961.029L973.329 119V136.7L961.029 149H923.829L911.529 136.7Z" fill="black"/>
</svg>
